{
	"asset":{
		"generator":"Khronos glTF Blender I/O v4.0.44",
		"version":"2.0"
	},
	"scene":0,
	"scenes":[
		{
			"name":"Scene",
			"nodes":[
				0,
				1
			]
		}
	],
	"nodes":[
		{
			"mesh":0,
			"name":"pSphere1",
			"rotation":[
				0.7071068286895752,
				0,
				0,
				0.7071068286895752
			],
			"scale":[
				1.4013043642044067,
				1.4013043642044067,
				1.4013043642044067
			],
			"translation":[
				-0.21466714143753052,
				1.7589737176895142,
				0.3761252462863922
			]
		},
		{
			"mesh":1,
			"name":"pDisc1",
			"rotation":[
				0.2432873398065567,
				-0.2713337242603302,
				-0.6646752953529358,
				0.6522238850593567
			],
			"scale":[
				0.7006517648696899,
				0.7006523609161377,
				0.7006514668464661
			],
			"translation":[
				0.21775296330451965,
				-1.7842589616775513,
				-0.38153204321861267
			]
		}
	],
	"materials":[
		{
			"doubleSided":true,
			"name":"microphone_tex",
			"pbrMetallicRoughness":{
				"baseColorTexture":{
					"index":0
				},
				"metallicFactor":0,
				"roughnessFactor":0.5
			}
		},
		{
			"doubleSided":true,
			"name":"siggraph_sticker",
			"pbrMetallicRoughness":{
				"baseColorTexture":{
					"index":1
				},
				"metallicFactor":0,
				"roughnessFactor":0.5
			}
		}
	],
	"meshes":[
		{
			"name":"pSphere1Mesh",
			"primitives":[
				{
					"attributes":{
						"POSITION":0,
						"NORMAL":1,
						"TEXCOORD_0":2
					},
					"indices":3,
					"material":0
				}
			]
		},
		{
			"name":"pDisc1Mesh",
			"primitives":[
				{
					"attributes":{
						"POSITION":4,
						"NORMAL":5,
						"TEXCOORD_0":6
					},
					"indices":7,
					"material":1
				}
			]
		}
	],
	"textures":[
		{
			"sampler":0,
			"source":0
		},
		{
			"sampler":0,
			"source":1
		}
	],
	"images":[
		{
			"mimeType":"image/png",
			"name":"microphone_tex",
			"uri":"microphone_tex.png"
		},
		{
			"mimeType":"image/png",
			"name":"SA23 Logo_Sphere White",
			"uri":"SA23%20Logo_Sphere%20White.png"
		}
	],
	"accessors":[
		{
			"bufferView":0,
			"componentType":5126,
			"count":1044,
			"max":[
				1.098615050315857,
				1.098615050315857,
				4.658690929412842
			],
			"min":[
				-1.098615050315857,
				-1.098615050315857,
				-1
			],
			"type":"VEC3"
		},
		{
			"bufferView":1,
			"componentType":5126,
			"count":1044,
			"type":"VEC3"
		},
		{
			"bufferView":2,
			"componentType":5126,
			"count":1044,
			"type":"VEC2"
		},
		{
			"bufferView":3,
			"componentType":5123,
			"count":1920,
			"type":"SCALAR"
		},
		{
			"bufferView":4,
			"componentType":5126,
			"count":61,
			"max":[
				1.0008729696273804,
				0.9639310240745544,
				0.5993180274963379
			],
			"min":[
				-0.9990249872207642,
				-0.8444399833679199,
				9.899999713525176e-05
			],
			"type":"VEC3"
		},
		{
			"bufferView":5,
			"componentType":5126,
			"count":61,
			"type":"VEC3"
		},
		{
			"bufferView":6,
			"componentType":5126,
			"count":61,
			"type":"VEC2"
		},
		{
			"bufferView":7,
			"componentType":5123,
			"count":288,
			"type":"SCALAR"
		}
	],
	"bufferViews":[
		{
			"buffer":0,
			"byteLength":12528,
			"byteOffset":0,
			"target":34962
		},
		{
			"buffer":0,
			"byteLength":12528,
			"byteOffset":12528,
			"target":34962
		},
		{
			"buffer":0,
			"byteLength":8352,
			"byteOffset":25056,
			"target":34962
		},
		{
			"buffer":0,
			"byteLength":3840,
			"byteOffset":33408,
			"target":34963
		},
		{
			"buffer":0,
			"byteLength":732,
			"byteOffset":37248,
			"target":34962
		},
		{
			"buffer":0,
			"byteLength":732,
			"byteOffset":37980,
			"target":34962
		},
		{
			"buffer":0,
			"byteLength":488,
			"byteOffset":38712,
			"target":34962
		},
		{
			"buffer":0,
			"byteLength":576,
			"byteOffset":39200,
			"target":34963
		}
	],
	"samplers":[
		{
			"magFilter":9729,
			"minFilter":9987
		}
	],
	"buffers":[
		{
			"byteLength":39776,
			"uri":"microphone.bin"
		}
	]
}
