{
	"asset":{
		"generator":"Khronos glTF Blender I/O v3.6.28",
		"version":"2.0"
	},
	"extensionsUsed":[
		"KHR_materials_specular",
		"KHR_materials_ior"
	],
	"scene":0,
	"scenes":[
		{
			"name":"Scene",
			"nodes":[
				0
			]
		}
	],
	"nodes":[
		{
			"mesh":0,
			"name":"pCube21",
			"rotation":[
				0,
				-0.7071068286895752,
				0.7071068286895752,
				3.090862321641907e-08
			],
			"scale":[
				0.10192455351352692,
				0.10192447155714035,
				0.10192445665597916
			]
		}
	],
	"materials":[
		{
			"doubleSided":true,
			"extensions":{
				"KHR_materials_specular":{
					"specularColorFactor":[
						0.431155942747884,
						0.431155942747884,
						0.431155942747884
					]
				},
				"KHR_materials_ior":{
					"ior":1.4500000476837158
				}
			},
			"name":"display",
			"pbrMetallicRoughness":{
				"baseColorTexture":{
					"index":0
				},
				"metallicFactor":0,
				"roughnessFactor":0.5
			}
		}
	],
	"meshes":[
		{
			"name":"pCube21Mesh",
			"primitives":[
				{
					"attributes":{
						"POSITION":0,
						"NORMAL":1,
						"TEXCOORD_0":2
					},
					"indices":3,
					"material":0
				}
			]
		}
	],
	"textures":[
		{
			"sampler":0,
			"source":0
		}
	],
	"images":[
		{
			"mimeType":"image/png",
			"name":"SIGGRAPH_CRT",
			"uri":"SIGGRAPH_CRT.png"
		}
	],
	"accessors":[
		{
			"bufferView":0,
			"componentType":5126,
			"count":4620,
			"max":[
				3.263032913208008,
				0.5660520195960999,
				2.8458449840545654
			],
			"min":[
				-2.9557650089263916,
				-6.42645788192749,
				-3.2543559074401855
			],
			"type":"VEC3"
		},
		{
			"bufferView":1,
			"componentType":5126,
			"count":4620,
			"type":"VEC3"
		},
		{
			"bufferView":2,
			"componentType":5126,
			"count":4620,
			"type":"VEC2"
		},
		{
			"bufferView":3,
			"componentType":5123,
			"count":4620,
			"type":"SCALAR"
		}
	],
	"bufferViews":[
		{
			"buffer":0,
			"byteLength":55440,
			"byteOffset":0,
			"target":34962
		},
		{
			"buffer":0,
			"byteLength":55440,
			"byteOffset":55440,
			"target":34962
		},
		{
			"buffer":0,
			"byteLength":36960,
			"byteOffset":110880,
			"target":34962
		},
		{
			"buffer":0,
			"byteLength":9240,
			"byteOffset":147840,
			"target":34963
		}
	],
	"samplers":[
		{
			"magFilter":9729,
			"minFilter":9987
		}
	],
	"buffers":[
		{
			"byteLength":157080,
			"uri":"crt.bin"
		}
	]
}
