{
	"asset":{
		"generator":"Khronos glTF Blender I/O v4.0.44",
		"version":"2.0"
	},
	"scene":0,
	"scenes":[
		{
			"name":"Scene",
			"nodes":[
				0,
				1,
				2,
				3,
				4,
				6,
				7
			]
		}
	],
	"nodes":[
		{
			"name":"imagePlane1",
			"scale":[
				0.009999999776482582,
				0.009999999776482582,
				0.009999999776482582
			]
		},
		{
			"mesh":0,
			"name":"pCube1",
			"rotation":[
				0.7071068286895752,
				0,
				0,
				0.7071068286895752
			],
			"scale":[
				0.3009999990463257,
				0.12206606566905975,
				0.04999999701976776
			],
			"translation":[
				0,
				0,
				0.00946957990527153
			]
		},
		{
			"mesh":1,
			"name":"pCylinder1",
			"rotation":[
				0.7071068286895752,
				0,
				0,
				0.7071068286895752
			],
			"scale":[
				0.05888683721423149,
				0.05888683721423149,
				0.007078459486365318
			],
			"translation":[
				0.09007489681243896,
				0.02455979958176613,
				0.009774030186235905
			]
		},
		{
			"name":"group",
			"rotation":[
				0.7071068286895752,
				0,
				0,
				0.7071068286895752
			],
			"scale":[
				0.009999999776482582,
				0.009999999776482582,
				0.009999999776482582
			],
			"translation":[
				0,
				-0.009999999776482582,
				0
			]
		},
		{
			"mesh":2,
			"name":"polySurface1",
			"rotation":[
				0.7071068286895752,
				0,
				0,
				0.7071068286895752
			],
			"scale":[
				0.009999999776482582,
				0.009999999776482582,
				0.009999999776482582
			]
		},
		{
			"mesh":3,
			"name":"pasted__pCylinder1",
			"scale":[
				5.888683795928955,
				5.888683795928955,
				0.7078459858894348
			],
			"translation":[
				9.007489204406738,
				0.977402925491333,
				-2.495136260986328
			]
		},
		{
			"children":[
				5
			],
			"name":"group1",
			"rotation":[
				0,
				-0.7071068286895752,
				0.7071068286895752,
				3.090862321641907e-08
			],
			"scale":[
				-0.009999999776482582,
				-0.009999999776482582,
				-0.008372319862246513
			],
			"translation":[
				-0.1769169121980667,
				-0.004408369772136211,
				0
			]
		},
		{
			"mesh":4,
			"name":"pCube3",
			"rotation":[
				0.7071068286895752,
				0,
				0,
				0.7071068286895752
			],
			"scale":[
				0.09850530326366425,
				0.009999999776482582,
				0.003000000026077032
			],
			"translation":[
				-0.054546769708395004,
				0.020000001415610313,
				-0.053240589797496796
			]
		}
	],
	"materials":[
		{
			"doubleSided":true,
			"name":"card_tex",
			"pbrMetallicRoughness":{
				"baseColorTexture":{
					"index":0
				},
				"metallicFactor":0,
				"roughnessFactor":0.5
			}
		},
		{
			"doubleSided":true,
			"name":"fan_tex",
			"pbrMetallicRoughness":{
				"baseColorTexture":{
					"index":1
				},
				"metallicFactor":0,
				"roughnessFactor":0.5
			}
		},
		{
			"doubleSided":true,
			"name":"bracket_tex",
			"pbrMetallicRoughness":{}
		},
		{
			"doubleSided":true,
			"name":"connector_tex",
			"pbrMetallicRoughness":{
				"baseColorTexture":{
					"index":2
				},
				"metallicFactor":0,
				"roughnessFactor":0.5
			}
		}
	],
	"meshes":[
		{
			"name":"pCube1Mesh",
			"primitives":[
				{
					"attributes":{
						"POSITION":0,
						"NORMAL":1,
						"TEXCOORD_0":2
					},
					"indices":3,
					"material":0
				}
			]
		},
		{
			"name":"pCylinder1Mesh",
			"primitives":[
				{
					"attributes":{
						"POSITION":4,
						"NORMAL":5,
						"TEXCOORD_0":6
					},
					"indices":7,
					"material":1
				}
			]
		},
		{
			"name":"polySurface1Mesh",
			"primitives":[
				{
					"attributes":{
						"POSITION":8,
						"NORMAL":9,
						"TEXCOORD_0":10
					},
					"indices":11,
					"material":2
				}
			]
		},
		{
			"name":"pasted__pCylinder1Mesh",
			"primitives":[
				{
					"attributes":{
						"POSITION":12,
						"NORMAL":13,
						"TEXCOORD_0":14
					},
					"indices":15,
					"material":1
				}
			]
		},
		{
			"name":"pCube3Mesh",
			"primitives":[
				{
					"attributes":{
						"POSITION":16,
						"NORMAL":17,
						"TEXCOORD_0":18
					},
					"indices":19,
					"material":3
				}
			]
		}
	],
	"textures":[
		{
			"sampler":0,
			"source":0
		},
		{
			"sampler":0,
			"source":1
		},
		{
			"sampler":0,
			"source":2
		}
	],
	"images":[
		{
			"mimeType":"image/png",
			"name":"card_tex",
			"uri":"card_tex.png"
		},
		{
			"mimeType":"image/jpeg",
			"name":"stan_tex",
			"uri":"stan_tex.jpg"
		},
		{
			"mimeType":"image/jpeg",
			"name":"connection_tex",
			"uri":"connection_tex.jpg"
		}
	],
	"accessors":[
		{
			"bufferView":0,
			"componentType":5126,
			"count":3948,
			"max":[
				0.5,
				0.5018309950828552,
				0.5535230040550232
			],
			"min":[
				-0.4945639967918396,
				-0.49587899446487427,
				-0.5400000214576721
			],
			"type":"VEC3"
		},
		{
			"bufferView":1,
			"componentType":5126,
			"count":3948,
			"type":"VEC3"
		},
		{
			"bufferView":2,
			"componentType":5126,
			"count":3948,
			"type":"VEC2"
		},
		{
			"bufferView":3,
			"componentType":5123,
			"count":3948,
			"type":"SCALAR"
		},
		{
			"bufferView":4,
			"componentType":5126,
			"count":282,
			"max":[
				1,
				1,
				1
			],
			"min":[
				-1,
				-1,
				-1
			],
			"type":"VEC3"
		},
		{
			"bufferView":5,
			"componentType":5126,
			"count":282,
			"type":"VEC3"
		},
		{
			"bufferView":6,
			"componentType":5126,
			"count":282,
			"type":"VEC2"
		},
		{
			"bufferView":7,
			"componentType":5123,
			"count":960,
			"type":"SCALAR"
		},
		{
			"bufferView":8,
			"componentType":5126,
			"count":509,
			"max":[
				-14.818318367004395,
				4.045386791229248,
				2.5
			],
			"min":[
				-16.138099670410156,
				-7.79164981842041,
				-2.709282875061035
			],
			"type":"VEC3"
		},
		{
			"bufferView":9,
			"componentType":5126,
			"count":509,
			"type":"VEC3"
		},
		{
			"bufferView":10,
			"componentType":5126,
			"count":509,
			"type":"VEC2"
		},
		{
			"bufferView":11,
			"componentType":5123,
			"count":1512,
			"type":"SCALAR"
		},
		{
			"bufferView":12,
			"componentType":5126,
			"count":286,
			"max":[
				1,
				1,
				1
			],
			"min":[
				-1,
				-1,
				-1
			],
			"type":"VEC3"
		},
		{
			"bufferView":13,
			"componentType":5126,
			"count":286,
			"type":"VEC3"
		},
		{
			"bufferView":14,
			"componentType":5126,
			"count":286,
			"type":"VEC2"
		},
		{
			"bufferView":15,
			"componentType":5123,
			"count":960,
			"type":"SCALAR"
		},
		{
			"bufferView":16,
			"componentType":5126,
			"count":174,
			"max":[
				0.49691900610923767,
				0.5,
				0.5
			],
			"min":[
				-0.5,
				-1.0373109579086304,
				-0.5
			],
			"type":"VEC3"
		},
		{
			"bufferView":17,
			"componentType":5126,
			"count":174,
			"type":"VEC3"
		},
		{
			"bufferView":18,
			"componentType":5126,
			"count":174,
			"type":"VEC2"
		},
		{
			"bufferView":19,
			"componentType":5123,
			"count":600,
			"type":"SCALAR"
		}
	],
	"bufferViews":[
		{
			"buffer":0,
			"byteLength":47376,
			"byteOffset":0,
			"target":34962
		},
		{
			"buffer":0,
			"byteLength":47376,
			"byteOffset":47376,
			"target":34962
		},
		{
			"buffer":0,
			"byteLength":31584,
			"byteOffset":94752,
			"target":34962
		},
		{
			"buffer":0,
			"byteLength":7896,
			"byteOffset":126336,
			"target":34963
		},
		{
			"buffer":0,
			"byteLength":3384,
			"byteOffset":134232,
			"target":34962
		},
		{
			"buffer":0,
			"byteLength":3384,
			"byteOffset":137616,
			"target":34962
		},
		{
			"buffer":0,
			"byteLength":2256,
			"byteOffset":141000,
			"target":34962
		},
		{
			"buffer":0,
			"byteLength":1920,
			"byteOffset":143256,
			"target":34963
		},
		{
			"buffer":0,
			"byteLength":6108,
			"byteOffset":145176,
			"target":34962
		},
		{
			"buffer":0,
			"byteLength":6108,
			"byteOffset":151284,
			"target":34962
		},
		{
			"buffer":0,
			"byteLength":4072,
			"byteOffset":157392,
			"target":34962
		},
		{
			"buffer":0,
			"byteLength":3024,
			"byteOffset":161464,
			"target":34963
		},
		{
			"buffer":0,
			"byteLength":3432,
			"byteOffset":164488,
			"target":34962
		},
		{
			"buffer":0,
			"byteLength":3432,
			"byteOffset":167920,
			"target":34962
		},
		{
			"buffer":0,
			"byteLength":2288,
			"byteOffset":171352,
			"target":34962
		},
		{
			"buffer":0,
			"byteLength":1920,
			"byteOffset":173640,
			"target":34963
		},
		{
			"buffer":0,
			"byteLength":2088,
			"byteOffset":175560,
			"target":34962
		},
		{
			"buffer":0,
			"byteLength":2088,
			"byteOffset":177648,
			"target":34962
		},
		{
			"buffer":0,
			"byteLength":1392,
			"byteOffset":179736,
			"target":34962
		},
		{
			"buffer":0,
			"byteLength":1200,
			"byteOffset":181128,
			"target":34963
		}
	],
	"samplers":[
		{
			"magFilter":9729,
			"minFilter":9987
		}
	],
	"buffers":[
		{
			"byteLength":182328,
			"uri":"gtx.bin"
		}
	]
}
