{
	"asset":{
		"generator":"Khronos glTF Blender I/O v4.0.44",
		"version":"2.0"
	},
	"scene":0,
	"scenes":[
		{
			"name":"Scene",
			"nodes":[
				0,
				1,
				2,
				3,
				4,
				5
			]
		}
	],
	"nodes":[
		{
			"mesh":0,
			"name":"pCube1.001",
			"rotation":[
				0.6988468766212463,
				-0.10776364058256149,
				0.1077636331319809,
				0.6988469958305359
			],
			"scale":[
				0.07571930438280106,
				0.04043470695614815,
				0.005015349946916103
			],
			"translation":[
				-0.08907217532396317,
				0.09359456598758698,
				-0.1759614795446396
			]
		},
		{
			"mesh":1,
			"name":"pCube1.002",
			"rotation":[
				0.015796473249793053,
				0.7069302797317505,
				0.7069303393363953,
				0.015796475112438202
			],
			"scale":[
				0.07571930438280106,
				0.04043470695614815,
				0.005015349946916103
			],
			"translation":[
				0.14126935601234436,
				0,
				-0.15285079181194305
			]
		},
		{
			"mesh":2,
			"name":"pCube1.003",
			"rotation":[
				0.7024023532867432,
				0.08143046498298645,
				-0.08143045753240585,
				0.7024024128913879
			],
			"scale":[
				0.07571930438280106,
				0.04043470695614815,
				0.005015349946916103
			],
			"translation":[
				0.10429248958826065,
				-0.0460384376347065,
				0.10735182464122772
			]
		},
		{
			"mesh":3,
			"name":"pCube1.004",
			"rotation":[
				0.6422789692878723,
				-0.15348444879055023,
				0.17453810572624207,
				0.7303813099861145
			],
			"scale":[
				0.07571930438280106,
				0.04043470695614815,
				0.005015349946916103
			],
			"translation":[
				-0.22085514664649963,
				0.028424464166164398,
				0.02870972454547882
			]
		},
		{
			"mesh":4,
			"name":"pCube1.005",
			"rotation":[
				0.7731842994689941,
				0,
				0,
				0.6341814398765564
			],
			"scale":[
				0.07571930438280106,
				0.04043470695614815,
				0.005015349946916103
			],
			"translation":[
				-0.023082196712493896,
				0.16845746338367462,
				0.012321552261710167
			]
		},
		{
			"mesh":5,
			"name":"pCube1.006",
			"rotation":[
				0.7804309129714966,
				0.2042500078678131,
				-0.17053444683551788,
				0.5657981634140015
			],
			"scale":[
				0.07571930438280106,
				0.04043470695614815,
				0.005015349946916103
			],
			"translation":[
				0.09691521525382996,
				-0.13113875687122345,
				-0.0734105110168457
			]
		}
	],
	"materials":[
		{
			"doubleSided":true,
			"name":"Material.002",
			"pbrMetallicRoughness":{
				"baseColorTexture":{
					"index":0
				},
				"metallicFactor":0,
				"roughnessFactor":0.5
			}
		},
		{
			"doubleSided":true,
			"name":"Material.003",
			"pbrMetallicRoughness":{
				"baseColorTexture":{
					"index":1
				},
				"metallicFactor":0,
				"roughnessFactor":0.5
			}
		},
		{
			"doubleSided":true,
			"name":"Material.004",
			"pbrMetallicRoughness":{
				"baseColorTexture":{
					"index":2
				},
				"metallicFactor":0,
				"roughnessFactor":0.5
			}
		},
		{
			"doubleSided":true,
			"name":"Material.005",
			"pbrMetallicRoughness":{
				"baseColorTexture":{
					"index":3
				},
				"metallicFactor":0,
				"roughnessFactor":0.5
			}
		},
		{
			"doubleSided":true,
			"name":"Material.006",
			"pbrMetallicRoughness":{
				"baseColorTexture":{
					"index":4
				},
				"metallicFactor":0,
				"roughnessFactor":0.5
			}
		},
		{
			"doubleSided":true,
			"name":"Material.007",
			"pbrMetallicRoughness":{
				"baseColorTexture":{
					"index":5
				},
				"metallicFactor":0,
				"roughnessFactor":0.5
			}
		}
	],
	"meshes":[
		{
			"name":"pCube1Mesh.001",
			"primitives":[
				{
					"attributes":{
						"POSITION":0,
						"NORMAL":1,
						"TEXCOORD_0":2
					},
					"indices":3,
					"material":0
				}
			]
		},
		{
			"name":"pCube1Mesh.002",
			"primitives":[
				{
					"attributes":{
						"POSITION":4,
						"NORMAL":5,
						"TEXCOORD_0":6
					},
					"indices":3,
					"material":1
				}
			]
		},
		{
			"name":"pCube1Mesh.003",
			"primitives":[
				{
					"attributes":{
						"POSITION":7,
						"NORMAL":8,
						"TEXCOORD_0":9
					},
					"indices":3,
					"material":2
				}
			]
		},
		{
			"name":"pCube1Mesh.004",
			"primitives":[
				{
					"attributes":{
						"POSITION":10,
						"NORMAL":11,
						"TEXCOORD_0":12
					},
					"indices":3,
					"material":3
				}
			]
		},
		{
			"name":"pCube1Mesh.005",
			"primitives":[
				{
					"attributes":{
						"POSITION":13,
						"NORMAL":14,
						"TEXCOORD_0":15
					},
					"indices":3,
					"material":4
				}
			]
		},
		{
			"name":"pCube1Mesh.006",
			"primitives":[
				{
					"attributes":{
						"POSITION":16,
						"NORMAL":17,
						"TEXCOORD_0":18
					},
					"indices":3,
					"material":5
				}
			]
		}
	],
	"textures":[
		{
			"sampler":0,
			"source":0
		},
		{
			"sampler":0,
			"source":0
		},
		{
			"sampler":0,
			"source":0
		},
		{
			"sampler":0,
			"source":0
		},
		{
			"sampler":0,
			"source":0
		},
		{
			"sampler":0,
			"source":0
		}
	],
	"images":[
		{
			"mimeType":"image/png",
			"name":"new_bird_tex_1",
			"uri":"new_bird_tex_1.png"
		}
	],
	"accessors":[
		{
			"bufferView":0,
			"componentType":5126,
			"count":166,
			"max":[
				0.981378972530365,
				0.6444770097732544,
				1.1277990341186523
			],
			"min":[
				-0.9190449714660645,
				-0.6444770097732544,
				-3.6175429821014404
			],
			"type":"VEC3"
		},
		{
			"bufferView":1,
			"componentType":5126,
			"count":166,
			"type":"VEC3"
		},
		{
			"bufferView":2,
			"componentType":5126,
			"count":166,
			"type":"VEC2"
		},
		{
			"bufferView":3,
			"componentType":5123,
			"count":432,
			"type":"SCALAR"
		},
		{
			"bufferView":4,
			"componentType":5126,
			"count":166,
			"max":[
				0.981378972530365,
				0.6444770097732544,
				1.1277990341186523
			],
			"min":[
				-0.9190449714660645,
				-0.6444770097732544,
				-3.6175429821014404
			],
			"type":"VEC3"
		},
		{
			"bufferView":5,
			"componentType":5126,
			"count":166,
			"type":"VEC3"
		},
		{
			"bufferView":6,
			"componentType":5126,
			"count":166,
			"type":"VEC2"
		},
		{
			"bufferView":7,
			"componentType":5126,
			"count":166,
			"max":[
				0.981378972530365,
				0.6444770097732544,
				1.1277990341186523
			],
			"min":[
				-0.9190449714660645,
				-0.6444770097732544,
				-3.6175429821014404
			],
			"type":"VEC3"
		},
		{
			"bufferView":8,
			"componentType":5126,
			"count":166,
			"type":"VEC3"
		},
		{
			"bufferView":9,
			"componentType":5126,
			"count":166,
			"type":"VEC2"
		},
		{
			"bufferView":10,
			"componentType":5126,
			"count":166,
			"max":[
				0.981378972530365,
				0.6444770097732544,
				1.1277990341186523
			],
			"min":[
				-0.9190449714660645,
				-0.6444770097732544,
				-3.6175429821014404
			],
			"type":"VEC3"
		},
		{
			"bufferView":11,
			"componentType":5126,
			"count":166,
			"type":"VEC3"
		},
		{
			"bufferView":12,
			"componentType":5126,
			"count":166,
			"type":"VEC2"
		},
		{
			"bufferView":13,
			"componentType":5126,
			"count":166,
			"max":[
				0.981378972530365,
				0.6444770097732544,
				1.1277990341186523
			],
			"min":[
				-0.9190449714660645,
				-0.6444770097732544,
				-3.6175429821014404
			],
			"type":"VEC3"
		},
		{
			"bufferView":14,
			"componentType":5126,
			"count":166,
			"type":"VEC3"
		},
		{
			"bufferView":15,
			"componentType":5126,
			"count":166,
			"type":"VEC2"
		},
		{
			"bufferView":16,
			"componentType":5126,
			"count":166,
			"max":[
				0.981378972530365,
				0.6444770097732544,
				1.1277990341186523
			],
			"min":[
				-0.9190449714660645,
				-0.6444770097732544,
				-3.6175429821014404
			],
			"type":"VEC3"
		},
		{
			"bufferView":17,
			"componentType":5126,
			"count":166,
			"type":"VEC3"
		},
		{
			"bufferView":18,
			"componentType":5126,
			"count":166,
			"type":"VEC2"
		}
	],
	"bufferViews":[
		{
			"buffer":0,
			"byteLength":1992,
			"byteOffset":0,
			"target":34962
		},
		{
			"buffer":0,
			"byteLength":1992,
			"byteOffset":1992,
			"target":34962
		},
		{
			"buffer":0,
			"byteLength":1328,
			"byteOffset":3984,
			"target":34962
		},
		{
			"buffer":0,
			"byteLength":864,
			"byteOffset":5312,
			"target":34963
		},
		{
			"buffer":0,
			"byteLength":1992,
			"byteOffset":6176,
			"target":34962
		},
		{
			"buffer":0,
			"byteLength":1992,
			"byteOffset":8168,
			"target":34962
		},
		{
			"buffer":0,
			"byteLength":1328,
			"byteOffset":10160,
			"target":34962
		},
		{
			"buffer":0,
			"byteLength":1992,
			"byteOffset":11488,
			"target":34962
		},
		{
			"buffer":0,
			"byteLength":1992,
			"byteOffset":13480,
			"target":34962
		},
		{
			"buffer":0,
			"byteLength":1328,
			"byteOffset":15472,
			"target":34962
		},
		{
			"buffer":0,
			"byteLength":1992,
			"byteOffset":16800,
			"target":34962
		},
		{
			"buffer":0,
			"byteLength":1992,
			"byteOffset":18792,
			"target":34962
		},
		{
			"buffer":0,
			"byteLength":1328,
			"byteOffset":20784,
			"target":34962
		},
		{
			"buffer":0,
			"byteLength":1992,
			"byteOffset":22112,
			"target":34962
		},
		{
			"buffer":0,
			"byteLength":1992,
			"byteOffset":24104,
			"target":34962
		},
		{
			"buffer":0,
			"byteLength":1328,
			"byteOffset":26096,
			"target":34962
		},
		{
			"buffer":0,
			"byteLength":1992,
			"byteOffset":27424,
			"target":34962
		},
		{
			"buffer":0,
			"byteLength":1992,
			"byteOffset":29416,
			"target":34962
		},
		{
			"buffer":0,
			"byteLength":1328,
			"byteOffset":31408,
			"target":34962
		}
	],
	"samplers":[
		{
			"magFilter":9729,
			"minFilter":9987
		}
	],
	"buffers":[
		{
			"byteLength":32736,
			"uri":"bird_flock_2.bin"
		}
	]
}
