{
	"asset":{
		"generator":"Khronos glTF Blender I/O v4.0.44",
		"version":"2.0"
	},
	"scene":0,
	"scenes":[
		{
			"name":"Scene",
			"nodes":[
				0
			]
		}
	],
	"nodes":[
		{
			"mesh":0,
			"name":"pCube1",
			"rotation":[
				0.0003842415753751993,
				0.7071066498756409,
				0.7071067690849304,
				0.00038424163358286023
			],
			"scale":[
				0.009999999776482582,
				0.009999999776482582,
				0.009999999776482582
			]
		}
	],
	"materials":[
		{
			"doubleSided":true,
			"name":"Material.001",
			"pbrMetallicRoughness":{
				"baseColorTexture":{
					"index":0
				},
				"metallicFactor":0,
				"roughnessFactor":0.5
			}
		}
	],
	"meshes":[
		{
			"name":"pCube1Mesh",
			"primitives":[
				{
					"attributes":{
						"POSITION":0,
						"NORMAL":1,
						"TEXCOORD_0":2
					},
					"indices":3,
					"material":0
				}
			]
		}
	],
	"textures":[
		{
			"sampler":0,
			"source":0
		}
	],
	"images":[
		{
			"mimeType":"image/png",
			"name":"mortarboard_tex",
			"uri":"mortarboard_tex.png"
		}
	],
	"accessors":[
		{
			"bufferView":0,
			"componentType":5126,
			"count":2490,
			"max":[
				10,
				10.000000953674316,
				1.6030839681625366
			],
			"min":[
				-12.086508750915527,
				-10,
				-9.801885604858398
			],
			"type":"VEC3"
		},
		{
			"bufferView":1,
			"componentType":5126,
			"count":2490,
			"type":"VEC3"
		},
		{
			"bufferView":2,
			"componentType":5126,
			"count":2490,
			"type":"VEC2"
		},
		{
			"bufferView":3,
			"componentType":5123,
			"count":2490,
			"type":"SCALAR"
		}
	],
	"bufferViews":[
		{
			"buffer":0,
			"byteLength":29880,
			"byteOffset":0,
			"target":34962
		},
		{
			"buffer":0,
			"byteLength":29880,
			"byteOffset":29880,
			"target":34962
		},
		{
			"buffer":0,
			"byteLength":19920,
			"byteOffset":59760,
			"target":34962
		},
		{
			"buffer":0,
			"byteLength":4980,
			"byteOffset":79680,
			"target":34963
		}
	],
	"samplers":[
		{
			"magFilter":9729,
			"minFilter":9987
		}
	],
	"buffers":[
		{
			"byteLength":84660,
			"uri":"mortarboard.bin"
		}
	]
}
